# xmcd CD database file generated by Grip 2.95
# 
# Track frame offsets:
#       183
#       12555
#       23823
#       33215
#       43630
#       55108
#       63950
#       76170
#       86820
#       96848
#       108973
#       121800
#       135253
#       149060
# 
# Disc length: 2143 seconds
# 
# Revision: 3
# Processed by: cddbd v1.4b41PL1 Copyright (c) Steve Scherf et al.
# Submitted via: Grip 2.95
# 
DISCID=b0085d0e
DTITLE=Johnny Winter - Texas Blues - 2
DYEAR=1900
DGENRE=
TTITLE0=Leave My Woman Alone
TTITLE1=I Can't Believe You Want To Leave
TTITLE2=Road Runner
TTITLE3=Shed So Many Tears
TTITLE4=Avocado Green
TTITLE5=I Had To Cry
TTITLE6=Please Come Home For Christmas
TTITLE7=That's What Love Does
TTITLE8=By The Light Of The Silvery Moon
TTITLE9=Kiss Tomorrow GoodBye
TTITLE10=Easy Lovin' Girl
TTITLE11=Birds Can't Row Boats (Spiders Of The Mind)
TTITLE12=Take A Chance On My Love
TTITLE13=The World Turns All Around Her
EXTD=
EXTT0=
EXTT1=
EXTT2=
EXTT3=
EXTT4=
EXTT5=
EXTT6=
EXTT7=
EXTT8=
EXTT9=
EXTT10=
EXTT11=
EXTT12=
EXTT13=
PLAYORDER=
